<svg width="13" height="17" viewBox="0 0 13 17" fill="none" xmlns="http://www.w3.org/2000/svg">
<mask id="path-1-inside-1_29_76" fill="white">
<path d="M1.76072 10.0861L1.10324 9.53168C0.998783 9.65788 0.932142 9.8115 0.911132 9.97455C0.890121 10.1376 0.915612 10.3033 0.984616 10.4523C1.05362 10.6012 1.16328 10.7272 1.30074 10.8156C1.4382 10.9039 1.59776 10.9508 1.76072 10.9509V10.0861ZM12.0472 10.0861V10.9509C12.2102 10.9508 12.3698 10.9039 12.5072 10.8156C12.6447 10.7272 12.7543 10.6012 12.8233 10.4523C12.8923 10.3033 12.9178 10.1376 12.8968 9.97455C12.8758 9.8115 12.8092 9.65788 12.7047 9.53168L12.0472 10.0861ZM6.04677 15.2752C6.04677 15.5046 6.13708 15.7246 6.29784 15.8868C6.4586 16.049 6.67663 16.1401 6.90398 16.1401C7.13132 16.1401 7.34936 16.049 7.51012 15.8868C7.67087 15.7246 7.76119 15.5046 7.76119 15.2752H6.04677ZM3.04654 2.48389C3.25398 3.31589 3.47514 4.58205 3.47514 6.19416H5.18956C5.18956 4.42119 4.94611 3.01319 4.70867 2.06011L3.04654 2.48389ZM3.47514 6.19416C3.47514 6.10162 3.5 6.0973 3.43828 6.23741C3.36708 6.3921 3.28664 6.54228 3.19741 6.68714C2.97625 7.0547 2.67365 7.49146 2.35734 7.92043C1.96179 8.4572 1.55248 8.98351 1.12982 9.49881L1.10924 9.52389L1.1041 9.52995L1.10324 9.53168C1.54164 9.90145 1.97996 10.2705 2.4182 10.6404L2.42077 10.6378L2.42677 10.6309L2.44992 10.6032C2.57879 10.447 2.70595 10.2893 2.83138 10.1302C3.07654 9.82141 3.40571 9.40022 3.73488 8.95135C4.06233 8.50508 4.40264 8.01816 4.66409 7.58314C4.79128 7.37545 4.90551 7.15997 5.00612 6.93795C5.08498 6.75805 5.18956 6.48389 5.18956 6.19416H3.47514ZM12.0472 10.0861L12.7047 9.53168L12.7039 9.52995L12.6987 9.52389L12.6781 9.49881C12.2558 8.98304 11.8462 8.45675 11.4498 7.92043C11.1343 7.49146 10.8317 7.05557 10.6105 6.68714C10.5216 6.54226 10.4415 6.39208 10.3705 6.23741C10.3071 6.0973 10.3328 6.10162 10.3328 6.19416H8.61839C8.61839 6.48389 8.72297 6.75805 8.80184 6.93795C8.8927 7.14551 9.01357 7.36606 9.14472 7.58314C9.43372 8.053 9.74349 8.50953 10.0731 8.95135C10.4874 9.51315 10.9161 10.064 11.3589 10.6032L11.3812 10.6309L11.3872 10.6378L11.3889 10.6396L12.0472 10.0861ZM4.79524 1.86984H9.29045V0.140108H4.7961L4.79524 1.86984ZM10.3328 6.19416C10.3328 6.01254 10.4177 5.39676 10.5557 4.56216C10.6886 3.76822 10.8523 2.87135 10.9783 2.19762L9.29388 1.87676C9.14339 2.67478 9.00052 3.47424 8.86527 4.27503C8.7384 5.04476 8.61839 5.83178 8.61839 6.19416H10.3328ZM1.76072 10.9509H6.90398V9.22119H1.76072V10.9509ZM6.90398 10.9509H12.0472V9.22119H6.90398V10.9509ZM6.04677 10.0861V15.2752H7.76119V10.0861H6.04677ZM9.29045 1.86984H9.29216L9.29473 1.87416L9.29388 1.87676L10.9783 2.19762C11.0253 1.94705 11.017 1.6891 10.9539 1.44215C10.8908 1.19519 10.7746 0.9653 10.6134 0.76884C10.4522 0.572381 10.2501 0.414183 10.0215 0.305511C9.79281 0.196839 9.54321 0.140364 9.29045 0.140108V1.86984ZM4.70867 2.06011C4.70417 2.03481 4.70489 2.00885 4.71079 1.98385C4.71669 1.95885 4.72764 1.93535 4.74295 1.91481C4.75413 1.89803 4.76874 1.88388 4.78581 1.8733C4.79267 1.86984 4.79524 1.86984 4.79524 1.86984L4.7961 0.140108C3.54286 0.140108 2.77737 1.40368 3.04654 2.48389L4.70867 2.06011Z"/>
</mask>
<path d="M1.76072 10.0861L1.10324 9.53168C0.998783 9.65788 0.932142 9.8115 0.911132 9.97455C0.890121 10.1376 0.915612 10.3033 0.984616 10.4523C1.05362 10.6012 1.16328 10.7272 1.30074 10.8156C1.4382 10.9039 1.59776 10.9508 1.76072 10.9509V10.0861ZM12.0472 10.0861V10.9509C12.2102 10.9508 12.3698 10.9039 12.5072 10.8156C12.6447 10.7272 12.7543 10.6012 12.8233 10.4523C12.8923 10.3033 12.9178 10.1376 12.8968 9.97455C12.8758 9.8115 12.8092 9.65788 12.7047 9.53168L12.0472 10.0861ZM6.04677 15.2752C6.04677 15.5046 6.13708 15.7246 6.29784 15.8868C6.4586 16.049 6.67663 16.1401 6.90398 16.1401C7.13132 16.1401 7.34936 16.049 7.51012 15.8868C7.67087 15.7246 7.76119 15.5046 7.76119 15.2752H6.04677ZM3.04654 2.48389C3.25398 3.31589 3.47514 4.58205 3.47514 6.19416H5.18956C5.18956 4.42119 4.94611 3.01319 4.70867 2.06011L3.04654 2.48389ZM3.47514 6.19416C3.47514 6.10162 3.5 6.0973 3.43828 6.23741C3.36708 6.3921 3.28664 6.54228 3.19741 6.68714C2.97625 7.0547 2.67365 7.49146 2.35734 7.92043C1.96179 8.4572 1.55248 8.98351 1.12982 9.49881L1.10924 9.52389L1.1041 9.52995L1.10324 9.53168C1.54164 9.90145 1.97996 10.2705 2.4182 10.6404L2.42077 10.6378L2.42677 10.6309L2.44992 10.6032C2.57879 10.447 2.70595 10.2893 2.83138 10.1302C3.07654 9.82141 3.40571 9.40022 3.73488 8.95135C4.06233 8.50508 4.40264 8.01816 4.66409 7.58314C4.79128 7.37545 4.90551 7.15997 5.00612 6.93795C5.08498 6.75805 5.18956 6.48389 5.18956 6.19416H3.47514ZM12.0472 10.0861L12.7047 9.53168L12.7039 9.52995L12.6987 9.52389L12.6781 9.49881C12.2558 8.98304 11.8462 8.45675 11.4498 7.92043C11.1343 7.49146 10.8317 7.05557 10.6105 6.68714C10.5216 6.54226 10.4415 6.39208 10.3705 6.23741C10.3071 6.0973 10.3328 6.10162 10.3328 6.19416H8.61839C8.61839 6.48389 8.72297 6.75805 8.80184 6.93795C8.8927 7.14551 9.01357 7.36606 9.14472 7.58314C9.43372 8.053 9.74349 8.50953 10.0731 8.95135C10.4874 9.51315 10.9161 10.064 11.3589 10.6032L11.3812 10.6309L11.3872 10.6378L11.3889 10.6396L12.0472 10.0861ZM4.79524 1.86984H9.29045V0.140108H4.7961L4.79524 1.86984ZM10.3328 6.19416C10.3328 6.01254 10.4177 5.39676 10.5557 4.56216C10.6886 3.76822 10.8523 2.87135 10.9783 2.19762L9.29388 1.87676C9.14339 2.67478 9.00052 3.47424 8.86527 4.27503C8.7384 5.04476 8.61839 5.83178 8.61839 6.19416H10.3328ZM1.76072 10.9509H6.90398V9.22119H1.76072V10.9509ZM6.90398 10.9509H12.0472V9.22119H6.90398V10.9509ZM6.04677 10.0861V15.2752H7.76119V10.0861H6.04677ZM9.29045 1.86984H9.29216L9.29473 1.87416L9.29388 1.87676L10.9783 2.19762C11.0253 1.94705 11.017 1.6891 10.9539 1.44215C10.8908 1.19519 10.7746 0.9653 10.6134 0.76884C10.4522 0.572381 10.2501 0.414183 10.0215 0.305511C9.79281 0.196839 9.54321 0.140364 9.29045 0.140108V1.86984ZM4.70867 2.06011C4.70417 2.03481 4.70489 2.00885 4.71079 1.98385C4.71669 1.95885 4.72764 1.93535 4.74295 1.91481C4.75413 1.89803 4.76874 1.88388 4.78581 1.8733C4.79267 1.86984 4.79524 1.86984 4.79524 1.86984L4.7961 0.140108C3.54286 0.140108 2.77737 1.40368 3.04654 2.48389L4.70867 2.06011Z" fill="#00AAF0"/>
<path d="M12.3824 9.14942L11.7249 9.7038L12.3695 10.4683L13.027 9.91393L12.3824 9.14942ZM7.76119 14.7752H6.04677V15.7752H7.76119V14.7752ZM3.47514 6.69416H5.18956V5.69416H3.47514V6.69416ZM4.58513 1.57561L2.92301 1.99939L3.17007 2.96839L4.8322 2.54461L4.58513 1.57561ZM10.3328 5.69416H8.61839V6.69416H10.3328V5.69416ZM9.79045 1.86984V0.140108H8.79045V1.86984H9.79045ZM4.2961 0.13986L4.29524 1.86959L5.29524 1.87009L5.2961 0.140356L4.2961 0.13986ZM11.0719 1.70645L9.38744 1.38559L9.20031 2.36792L10.8847 2.68879L11.0719 1.70645ZM7.40398 10.9509V9.22119H6.40398V10.9509H7.40398ZM1.76072 10.0861H2.76072V9.62121L2.40534 9.32155L1.76072 10.0861ZM1.76072 10.9509L1.76018 11.9509H1.76072V10.9509ZM12.0472 10.0861H13.0472V7.93879L11.4037 9.32064L12.0472 10.0861ZM12.0472 10.9509V11.9509H12.0478L12.0472 10.9509ZM12.7047 9.53168L11.8085 9.97533L11.8602 10.0796L11.9344 10.1693L12.7047 9.53168ZM3.04654 2.48389L2.07621 2.72567L2.07624 2.72582L3.04654 2.48389ZM4.70867 2.06011L3.72411 2.23517L3.73008 2.26876L3.73833 2.30185L4.70867 2.06011ZM3.43828 6.23741L4.34668 6.6555L4.35012 6.64805L4.35342 6.64054L3.43828 6.23741ZM3.19741 6.68714L2.34596 6.16259L2.34055 6.17158L3.19741 6.68714ZM2.35734 7.92043L1.55249 7.32696L1.55231 7.3272L2.35734 7.92043ZM1.12982 9.49881L1.90299 10.133L1.903 10.133L1.12982 9.49881ZM1.10924 9.52389L1.87132 10.1714L1.87692 10.1648L1.88242 10.1581L1.10924 9.52389ZM1.1041 9.52995L0.342029 8.88245L0.262614 8.97592L0.208142 9.08581L1.1041 9.52995ZM2.4182 10.6404L1.77312 11.4045L2.47862 12.0001L3.12852 11.3443L2.4182 10.6404ZM2.42077 10.6378L3.13109 11.3417L3.15448 11.3181L3.17625 11.293L2.42077 10.6378ZM2.42677 10.6309L3.18225 11.2861L3.18813 11.2793L3.19389 11.2724L2.42677 10.6309ZM2.44992 10.6032L3.21706 11.2448L3.22142 11.2395L2.44992 10.6032ZM2.83138 10.1302L2.04823 9.50832L2.04605 9.51108L2.83138 10.1302ZM3.73488 8.95135L2.92863 8.35977L2.92847 8.35999L3.73488 8.95135ZM4.66409 7.58314L3.81128 7.06085L3.80697 7.06801L4.66409 7.58314ZM5.00612 6.93795L5.91704 7.35071L5.92197 7.33945L5.00612 6.93795ZM12.7039 9.52995L13.6001 9.08629L13.5455 8.97608L13.4658 8.88236L12.7039 9.52995ZM12.6987 9.52389L11.9255 10.1581L11.9311 10.1648L11.9367 10.1715L12.6987 9.52389ZM12.6781 9.49881L11.9044 10.1324L11.905 10.133L12.6781 9.49881ZM11.4498 7.92043L10.6441 8.51286L10.6456 8.51485L11.4498 7.92043ZM10.6105 6.68714L11.468 6.17244L11.4628 6.16392L10.6105 6.68714ZM10.3705 6.23741L9.45954 6.64986L9.46153 6.6542L10.3705 6.23741ZM8.80184 6.93795L9.71791 6.53693L9.71769 6.53644L8.80184 6.93795ZM9.14472 7.58314L8.28878 8.10027L8.29295 8.10704L9.14472 7.58314ZM10.0731 8.95135L10.8779 8.35781L10.8746 8.35341L10.0731 8.95135ZM11.3589 10.6032L12.1378 9.97603L12.1318 9.9687L11.3589 10.6032ZM11.3812 10.6309L10.6023 11.2581L10.6138 11.2723L10.6257 11.2861L11.3812 10.6309ZM11.3872 10.6378L10.6317 11.293L10.6535 11.3182L10.677 11.3418L11.3872 10.6378ZM11.3889 10.6396L10.6787 11.3435L11.3272 11.9979L12.0324 11.405L11.3889 10.6396ZM4.79524 1.86984V0.869838H4.79515L4.79524 1.86984ZM9.29045 0.140108L9.29146 -0.859892H9.29045V0.140108ZM10.5557 4.56216L9.5694 4.39711L9.56909 4.39902L10.5557 4.56216ZM10.9783 2.19762L9.99543 2.01327L9.99534 2.01378L10.9783 2.19762ZM9.29388 1.87676L8.34427 1.56331L8.32348 1.62628L8.3112 1.69145L9.29388 1.87676ZM8.86527 4.27503L7.87923 4.10849L7.87858 4.1124L8.86527 4.27503ZM1.76072 9.22119V8.22119H0.760723V9.22119H1.76072ZM12.0472 9.22119H13.0472V8.22119H12.0472V9.22119ZM6.04677 10.0861V9.08606H5.04677V10.0861H6.04677ZM7.76119 10.0861H8.76119V9.08606H7.76119V10.0861ZM9.29216 1.86984L10.1517 1.35878L9.861 0.869838H9.29216V1.86984ZM9.29473 1.87416L10.2443 2.18761L10.3872 1.75484L10.1543 1.3631L9.29473 1.87416ZM4.74295 1.91481L5.54461 2.51259L5.56054 2.49123L5.57531 2.46905L4.74295 1.91481ZM4.78581 1.8733L4.33541 0.980471L4.29632 1.00019L4.25911 1.02325L4.78581 1.8733ZM2.40534 9.32155L1.74786 8.76717L0.458623 10.2962L1.1161 10.8506L2.40534 9.32155ZM0.332908 8.89404C0.107481 9.16638 -0.0355906 9.49693 -0.0806677 9.84675L1.90293 10.1024C1.89988 10.1261 1.89008 10.1494 1.87358 10.1693L0.332908 8.89404ZM-0.0806677 9.84675C-0.125741 10.1965 -0.0711377 10.5523 0.0772519 10.8726L1.89198 10.0319C1.90236 10.0543 1.90598 10.0787 1.90293 10.1024L-0.0806677 9.84675ZM0.0772519 10.8726C0.225675 11.193 0.462164 11.4654 0.760187 11.6569L1.84129 9.97425C1.86439 9.98909 1.88156 10.0094 1.89198 10.0319L0.0772519 10.8726ZM0.760187 11.6569C1.0583 11.8484 1.40521 11.9507 1.76018 11.9509L1.76127 9.95092C1.79031 9.95094 1.81809 9.95934 1.84129 9.97425L0.760187 11.6569ZM2.76072 10.9509V10.0861H0.760723V10.9509H2.76072ZM11.0472 10.0861V10.9509H13.0472V10.0861H11.0472ZM12.0478 11.9509C12.4027 11.9507 12.7497 11.8484 13.0478 11.6569L11.9667 9.97425C11.9899 9.95934 12.0176 9.95094 12.0467 9.95092L12.0478 11.9509ZM13.0478 11.6569C13.3458 11.4654 13.5823 11.193 13.7307 10.8726L11.916 10.0319C11.9264 10.0094 11.9436 9.98909 11.9667 9.97425L13.0478 11.6569ZM13.7307 10.8726C13.8791 10.5523 13.9337 10.1965 13.8886 9.84675L11.905 10.1024C11.902 10.0787 11.9056 10.0543 11.916 10.0319L13.7307 10.8726ZM13.8886 9.84675C13.8435 9.49693 13.7005 9.16638 13.475 8.89404L11.9344 10.1693C11.9179 10.1494 11.9081 10.1261 11.905 10.1024L13.8886 9.84675ZM5.04677 15.2752C5.04677 15.767 5.2403 16.2404 5.5876 16.5908L7.00808 15.1828C7.03386 15.2089 7.04677 15.2423 7.04677 15.2752H5.04677ZM5.5876 16.5908C5.9352 16.9415 6.40854 17.1401 6.90398 17.1401V15.1401C6.94473 15.1401 6.982 15.1565 7.00808 15.1828L5.5876 16.5908ZM6.90398 17.1401C7.39942 17.1401 7.87276 16.9415 8.22036 16.5908L6.79987 15.1828C6.82596 15.1565 6.86323 15.1401 6.90398 15.1401V17.1401ZM8.22036 16.5908C8.56766 16.2404 8.76119 15.767 8.76119 15.2752H6.76119C6.76119 15.2423 6.77409 15.2089 6.79987 15.1828L8.22036 16.5908ZM2.07624 2.72582C2.26652 3.48898 2.47514 4.67357 2.47514 6.19416H4.47514C4.47514 4.49054 4.24144 3.1428 4.01683 2.24197L2.07624 2.72582ZM6.18956 6.19416C6.18956 4.32946 5.93351 2.83991 5.679 1.81836L3.73833 2.30185C3.95871 3.18646 4.18956 4.51292 4.18956 6.19416H6.18956ZM4.47514 6.19416C4.47514 6.21612 4.47364 6.23908 4.47074 6.26294C4.46924 6.27532 4.46765 6.28537 4.46705 6.28915C4.46204 6.32023 4.47176 6.26451 4.47589 6.21955C4.47691 6.20847 4.47944 6.17965 4.47998 6.14271C4.48025 6.12435 4.48028 6.09083 4.47697 6.04903C4.47462 6.01941 4.46666 5.92491 4.42838 5.81054C4.4146 5.76937 4.27399 5.31912 3.76232 5.16858C3.20831 5.00559 2.83526 5.36081 2.78821 5.4059C2.69157 5.4985 2.63725 5.58888 2.62167 5.61496C2.59864 5.65349 2.58298 5.68567 2.57484 5.703C2.55839 5.73804 2.54764 5.76638 2.54365 5.77701C2.53851 5.79073 2.5347 5.80184 2.53256 5.80817C2.52834 5.82064 2.52529 5.83051 2.52426 5.83387C2.51884 5.85144 2.52499 5.8316 2.52789 5.82344C2.5302 5.81696 2.52931 5.82026 2.52314 5.83428L4.35342 6.64054C4.37811 6.5845 4.39726 6.5358 4.41227 6.49361C4.42787 6.44975 4.43937 6.41051 4.43545 6.42322C4.43451 6.42627 4.43154 6.43589 4.42739 6.44817C4.42529 6.45441 4.4215 6.46544 4.41638 6.47908C4.41242 6.48965 4.40169 6.51793 4.38526 6.55294C4.37713 6.57025 4.36148 6.60241 4.33846 6.64093C4.32288 6.667 4.26857 6.75736 4.17193 6.84996C4.12489 6.89504 3.75185 7.25026 3.19784 7.08727C2.68617 6.93674 2.54557 6.48649 2.53179 6.44533C2.49352 6.33097 2.48555 6.23648 2.48321 6.20688C2.4799 6.16508 2.47993 6.13159 2.4802 6.11324C2.48074 6.07636 2.48327 6.0476 2.48428 6.03658C2.48835 5.9922 2.49783 5.93793 2.49246 5.97132C2.49111 5.97972 2.48825 5.9978 2.48538 6.02141C2.47975 6.06773 2.47514 6.12594 2.47514 6.19416H4.47514ZM2.52988 5.81931C2.47551 5.93744 2.4141 6.05209 2.34601 6.16262L4.0488 7.21165C4.15919 7.03248 4.25866 6.84675 4.34668 6.6555L2.52988 5.81931ZM2.34055 6.17158C2.14246 6.50081 1.86052 6.90922 1.55249 7.32696L3.16219 8.51391C3.48679 8.0737 3.81003 7.6086 4.05426 7.20269L2.34055 6.17158ZM1.55231 7.3272C1.16702 7.85005 0.768321 8.3627 0.356631 8.86463L1.903 10.133C2.33664 9.60431 2.75657 9.06435 3.16237 8.51367L1.55231 7.3272ZM0.356644 8.86462L0.33607 8.8897L1.88242 10.1581L1.90299 10.133L0.356644 8.86462ZM0.347171 8.8764L0.342029 8.88245L1.86617 10.1774L1.87132 10.1714L0.347171 8.8764ZM0.208142 9.08581L0.207284 9.08754L1.9992 9.97581L2.00006 9.97408L0.208142 9.08581ZM0.458498 10.2961C0.898143 10.6669 1.33481 11.0345 1.77312 11.4045L3.06328 9.87632C2.62511 9.50641 2.18514 9.13601 1.74799 8.76728L0.458498 10.2961ZM3.12852 11.3443L3.13109 11.3417L1.71046 9.93395L1.70789 9.93655L3.12852 11.3443ZM3.17625 11.293L3.18225 11.2861L1.6713 9.97574L1.6653 9.98266L3.17625 11.293ZM3.19389 11.2724L3.21704 11.2447L1.6828 9.96174L1.65966 9.98941L3.19389 11.2724ZM3.22142 11.2395C3.35496 11.0775 3.48673 10.9141 3.6167 10.7492L2.04605 9.51108C1.92517 9.66442 1.80262 9.8164 1.67842 9.96701L3.22142 11.2395ZM3.61452 10.752C3.86344 10.4385 4.20141 10.0062 4.54128 9.54272L2.92847 8.35999C2.61001 8.79426 2.28964 9.2043 2.04823 9.50832L3.61452 10.752ZM4.54112 9.54294C4.87493 9.088 5.23628 8.57234 5.52121 8.09826L3.80697 7.06801C3.569 7.46398 3.24973 7.92216 2.92863 8.35977L4.54112 9.54294ZM5.51687 8.1054C5.66569 7.86241 5.79931 7.61035 5.91697 7.35068L4.09526 6.52522C4.01171 6.7096 3.91687 6.8885 3.81131 7.06087L5.51687 8.1054ZM5.92197 7.33945C6.01229 7.13342 6.18956 6.7007 6.18956 6.19416H4.18956C4.18956 6.22181 4.18405 6.26832 4.16519 6.33499C4.14665 6.40049 4.12052 6.46742 4.09026 6.53644L5.92197 7.33945ZM13.6009 9.08802L13.6001 9.08629L11.8077 9.9736L11.8085 9.97533L13.6009 9.08802ZM13.4658 8.88236L13.4607 8.87631L11.9367 10.1715L11.9419 10.1775L13.4658 8.88236ZM13.4719 8.88971L13.4513 8.86463L11.905 10.133L11.9255 10.1581L13.4719 8.88971ZM13.4518 8.86525C13.0399 8.36227 12.6405 7.84904 12.2539 7.32602L10.6456 8.51485C11.0519 9.06446 11.4716 9.6038 11.9044 10.1324L13.4518 8.86525ZM12.2554 7.328C11.9471 6.90877 11.6656 6.50172 11.4679 6.17247L9.75316 7.2018C9.99784 7.60942 10.3215 8.07415 10.6441 8.51286L12.2554 7.328ZM11.4628 6.16392C11.3949 6.05338 11.3337 5.93873 11.2795 5.82061L9.46153 6.6542C9.54921 6.84542 9.64832 7.03114 9.75835 7.21035L11.4628 6.16392ZM11.2815 5.82496C11.2754 5.81136 11.2747 5.80866 11.2774 5.81594C11.2813 5.82667 11.2864 5.84327 11.2835 5.83381C11.2826 5.83111 11.28 5.82254 11.2764 5.81169C11.2745 5.80619 11.2712 5.79637 11.2668 5.78422C11.2633 5.7749 11.2539 5.74943 11.2397 5.71779C11.2327 5.70221 11.219 5.67269 11.1989 5.63706C11.1862 5.61455 11.1372 5.52724 11.0492 5.43551C10.9982 5.38606 10.8539 5.2776 10.7576 5.22508C10.6012 5.16607 10.2213 5.13359 10.0105 5.17956C9.82743 5.26204 9.56554 5.4805 9.4818 5.59453C9.43666 5.67394 9.37842 5.8134 9.36129 5.87078C9.33301 5.97705 9.32942 6.06334 9.32842 6.0888C9.32696 6.12608 9.32792 6.15585 9.32863 6.172C9.33006 6.20455 9.33282 6.22991 9.3339 6.23952C9.3381 6.277 9.34713 6.32708 9.3421 6.29747C9.34113 6.29174 9.33935 6.28082 9.33768 6.26759C9.33446 6.24213 9.33281 6.21763 9.33281 6.19416H11.3328C11.3328 6.12443 11.3279 6.06468 11.3219 6.01676C11.3188 5.9923 11.3157 5.97335 11.3139 5.963C11.3085 5.93108 11.3173 5.97971 11.3214 6.01662C11.3225 6.02616 11.3253 6.05146 11.3267 6.08396C11.3274 6.10009 11.3284 6.12984 11.3269 6.1671C11.3259 6.19255 11.3223 6.27883 11.294 6.38509C11.2769 6.44247 11.2187 6.58192 11.1735 6.66133C11.0898 6.77536 10.8279 6.99381 10.6448 7.07629C10.434 7.12226 10.0541 7.08979 9.89772 7.03078C9.80142 6.97826 9.65712 6.86979 9.60617 6.82035C9.51815 6.72863 9.46913 6.64132 9.45645 6.61882C9.43639 6.58321 9.42269 6.55371 9.41569 6.53815C9.40147 6.50654 9.39208 6.48113 9.38869 6.47188C9.38427 6.45979 9.38097 6.45006 9.37917 6.44465C9.37561 6.434 9.37304 6.42567 9.37231 6.42328C9.37089 6.41868 9.38146 6.45468 9.39839 6.50112C9.41407 6.5441 9.43399 6.5934 9.45955 6.64985L11.2815 5.82496ZM7.61839 6.19416C7.61839 6.7007 7.79566 7.13343 7.88598 7.33945L9.71769 6.53644C9.68744 6.46742 9.6613 6.40049 9.64277 6.33499C9.6239 6.26832 9.61839 6.22181 9.61839 6.19416H7.61839ZM7.88577 7.33896C8.00071 7.60154 8.14557 7.86317 8.28881 8.10025L10.0006 7.06602C9.88157 6.86894 9.78469 6.68948 9.71791 6.53693L7.88577 7.33896ZM8.29295 8.10704C8.59757 8.6023 8.92409 9.08353 9.27154 9.54929L10.8746 8.35341C10.5629 7.93552 10.2699 7.5037 9.9965 7.05923L8.29295 8.10704ZM9.26827 9.54489C9.69287 10.1206 10.1323 10.6851 10.586 11.2378L12.1318 9.9687C11.7 9.44282 11.2819 8.90568 10.8779 8.35782L9.26827 9.54489ZM10.58 11.2304L10.6023 11.2581L12.1601 10.0037L12.1378 9.97606L10.58 11.2304ZM10.6257 11.2861L10.6317 11.293L12.1426 9.98265L12.1366 9.97573L10.6257 11.2861ZM10.677 11.3418L10.6787 11.3435L12.0991 9.9356L12.0974 9.93387L10.677 11.3418ZM12.0324 11.405L12.6908 10.8515L11.4037 9.32064L10.7454 9.87416L12.0324 11.405ZM4.79524 2.86984H9.29045V0.869838H4.79524V2.86984ZM9.29045 -0.859892H4.7961V1.14011H9.29045V-0.859892ZM11.3328 6.19416C11.3328 6.20508 11.333 6.17724 11.3428 6.08433C11.3514 6.00218 11.3648 5.89331 11.3833 5.75867C11.42 5.49002 11.4742 5.13723 11.5423 4.72531L9.56909 4.39902C9.49919 4.82169 9.44189 5.19409 9.40174 5.48739C9.36553 5.75188 9.33281 6.02222 9.33281 6.19416H11.3328ZM11.542 4.72722C11.6733 3.94242 11.8357 3.05269 11.9612 2.38147L9.99534 2.01378C9.86886 2.69002 9.7038 3.59401 9.5694 4.39711L11.542 4.72722ZM8.3112 1.69145C8.15953 2.49572 8.01554 3.30144 7.87924 4.10849L9.85131 4.44156C9.9855 3.64704 10.1273 2.85383 10.2766 2.06206L8.3112 1.69145ZM7.87858 4.1124C7.75814 4.84315 7.61839 5.72935 7.61839 6.19416H9.61839C9.61839 5.93422 9.71867 5.24636 9.85196 4.43765L7.87858 4.1124ZM1.76072 11.9509H6.90398V9.95092H1.76072V11.9509ZM6.90398 8.22119H1.76072V10.2212H6.90398V8.22119ZM0.760723 9.22119V10.9509H2.76072V9.22119H0.760723ZM6.90398 11.9509H12.0472V9.95092H6.90398V11.9509ZM13.0472 10.9509V9.22119H11.0472V10.9509H13.0472ZM12.0472 8.22119H6.90398V10.2212H12.0472V8.22119ZM5.04677 10.0861V15.2752H7.04677V10.0861H5.04677ZM8.76119 15.2752V10.0861H6.76119V15.2752H8.76119ZM7.76119 9.08606H6.04677V11.0861H7.76119V9.08606ZM9.29045 2.86984H9.29216V0.869838H9.29045V2.86984ZM8.43262 2.3809L8.43519 2.38522L10.1543 1.3631L10.1517 1.35878L8.43262 2.3809ZM8.34513 1.56071L8.34427 1.56331L10.2435 2.19021L10.2443 2.18761L8.34513 1.56071ZM11.9612 2.38197C12.035 1.98821 12.0219 1.5829 11.9228 1.19471L9.98499 1.68958C10.012 1.7953 10.0156 1.90588 9.99543 2.01327L11.9612 2.38197ZM11.9228 1.19471C11.8237 0.806504 11.6408 0.444488 11.3866 0.134607L9.84027 1.40307C9.90839 1.48611 9.958 1.58388 9.98499 1.68958L11.9228 1.19471ZM11.3866 0.134607C11.1323 -0.175306 10.8129 -0.425539 10.4507 -0.597681L9.59224 1.2087C9.68735 1.25391 9.77218 1.32007 9.84027 1.40307L11.3866 0.134607ZM10.4507 -0.597681C10.0885 -0.769837 9.69263 -0.859484 9.29146 -0.859891L9.28943 1.14011C9.3938 1.14021 9.49715 1.16351 9.59224 1.2087L10.4507 -0.597681ZM5.69322 1.88504C5.71259 1.99399 5.70949 2.10577 5.68406 2.21353L3.73752 1.75417C3.70029 1.91194 3.69574 2.07563 3.72411 2.23517L5.69322 1.88504ZM5.68406 2.21353C5.65862 2.32131 5.6113 2.42316 5.54461 2.51259L3.9413 1.31703C3.84398 1.44754 3.77476 1.59639 3.73752 1.75417L5.68406 2.21353ZM5.57531 2.46905C5.50729 2.5712 5.41783 2.65809 5.31252 2.72335L4.25911 1.02325C4.11966 1.10966 4.00096 1.22487 3.9106 1.36057L5.57531 2.46905ZM5.23621 2.76612C5.19622 2.7863 5.14018 2.81094 5.07013 2.83113C5.03456 2.84139 4.99372 2.85098 4.94818 2.85805C4.92534 2.8616 4.90112 2.86454 4.87565 2.8666C4.86291 2.86763 4.84983 2.86844 4.83644 2.86899C4.82975 2.86926 4.82297 2.86948 4.81612 2.86962C4.8127 2.86969 4.80925 2.86975 4.80578 2.86978C4.80405 2.8698 4.80232 2.86981 4.80057 2.86982C4.7997 2.86983 4.79883 2.86983 4.79796 2.86983C4.79752 2.86984 4.79686 2.86984 4.79665 2.86984C4.79599 2.86984 4.79533 2.86984 4.79524 1.86984C4.79515 0.869838 4.7945 0.869838 4.79384 0.869839C4.79362 0.869839 4.79297 0.869841 4.79253 0.869842C4.79166 0.869844 4.79078 0.869848 4.78991 0.869852C4.78817 0.869861 4.78643 0.869875 4.7847 0.869894C4.78123 0.86993 4.77778 0.869985 4.77435 0.870056C4.76749 0.8702 4.7607 0.870412 4.75398 0.870689C4.74055 0.871243 4.72742 0.872056 4.71459 0.873093C4.68895 0.875164 4.66448 0.878134 4.64129 0.881735C4.59505 0.888915 4.55314 0.898721 4.51608 0.909408C4.44302 0.93047 4.38227 0.956836 4.33541 0.980471L5.23621 2.76612ZM4.7961 -0.859892C2.77726 -0.859892 1.67892 1.13129 2.07621 2.72567L4.01687 2.24211C3.95664 2.00041 4.01042 1.70877 4.17073 1.47884C4.32084 1.26354 4.53429 1.14011 4.7961 1.14011V-0.859892Z" fill="#00AAF0" mask="url(#path-1-inside-1_29_76)"/>
</svg>
