<svg width="14" height="19" viewBox="0 0 14 19" fill="none" xmlns="http://www.w3.org/2000/svg">
<path d="M8.54869 16.1883L10.2678 10.2797C10.5054 9.46373 11.0214 8.75729 11.7258 8.28371C12.1944 7.97344 12.5687 7.53996 12.8079 7.03072C13.0703 6.4032 13.1415 5.71192 13.0126 5.04392C12.8837 4.37592 12.5605 3.76106 12.0836 3.27676L12.5976 2.17217C12.6882 1.9768 12.6977 1.75338 12.624 1.55101C12.5503 1.34863 12.3994 1.18386 12.2045 1.0929L10.5207 0.306142C10.326 0.215574 10.1034 0.206057 9.90168 0.279677C9.69996 0.353297 9.53559 0.504049 9.4446 0.698893L8.93027 1.80413C8.25346 1.74919 7.57557 1.89621 6.98201 2.22669C6.38845 2.55716 5.90579 3.05628 5.59486 3.66117C5.35957 4.17218 5.26829 4.73797 5.33092 5.29724C5.42267 6.14179 5.21474 6.99176 4.74359 7.69805L1.33156 12.8157C1.11725 13.1369 0.974817 13.5008 0.914026 13.8824C0.853236 14.264 0.875529 14.6542 0.979374 15.0263C1.08322 15.3985 1.26616 15.7437 1.51565 16.0383C1.76514 16.333 2.07528 16.57 2.42479 16.7333L4.85181 17.8673C5.20129 18.0307 5.58188 18.1164 5.9675 18.1185C6.35311 18.1206 6.73462 18.0391 7.08586 17.8796C7.4371 17.7201 7.74976 17.4864 8.0024 17.1945C8.25503 16.9025 8.44166 16.5593 8.54949 16.1883L8.54869 16.1883ZM8.95439 2.73005C9.11616 2.74002 9.27717 2.70085 9.41637 2.61766C9.55557 2.53446 9.66648 2.41112 9.7346 2.26376L9.90295 1.90198L11.3826 2.59336L11.2143 2.95514C11.1453 3.10205 11.1222 3.26637 11.148 3.42664C11.1737 3.58691 11.2472 3.73566 11.3586 3.85345C12.1337 4.6791 12.3741 5.77318 11.9701 6.64125L11.9671 6.64778L6.42805 4.05962L6.43109 4.05309C6.83503 3.18421 7.8253 2.66595 8.95439 2.73005Z" fill="white"/>
</svg>
