<svg width="123" height="122" viewBox="0 0 123 122" fill="none" xmlns="http://www.w3.org/2000/svg">
<rect width="3.316" height="3.316" rx="1.34409" fill="white" fill-opacity="0.5"/>
<rect x="13.264" y="-6.10352e-05" width="3.316" height="3.316" rx="1.34409" fill="white" fill-opacity="0.5"/>
<rect x="26.528" y="-6.10352e-05" width="3.316" height="3.316" rx="1.34409" fill="white" fill-opacity="0.5"/>
<rect x="39.7918" y="-6.10352e-05" width="3.316" height="3.316" rx="1.34409" fill="white" fill-opacity="0.5"/>
<rect x="53.056" y="-6.10352e-05" width="3.316" height="3.316" rx="1.34409" fill="white" fill-opacity="0.5"/>
<rect x="66.3199" y="-6.10352e-05" width="3.316" height="3.316" rx="1.34409" fill="white" fill-opacity="0.5"/>
<rect x="79.584" y="-6.10352e-05" width="3.316" height="3.316" rx="1.34409" fill="white" fill-opacity="0.5"/>
<rect x="92.8481" y="-6.10352e-05" width="3.316" height="3.316" rx="1.34409" fill="white" fill-opacity="0.5"/>
<rect x="106.112" y="-6.10352e-05" width="3.316" height="3.316" rx="1.34409" fill="white" fill-opacity="0.5"/>
<rect x="119.376" y="-6.10352e-05" width="3.316" height="3.316" rx="1.34409" fill="white" fill-opacity="0.5"/>
<rect y="13.2639" width="3.316" height="3.316" rx="1.34409" fill="white" fill-opacity="0.5"/>
<rect x="13.264" y="13.2639" width="3.316" height="3.316" rx="1.34409" fill="white" fill-opacity="0.5"/>
<rect x="26.528" y="13.2639" width="3.316" height="3.316" rx="1.34409" fill="white" fill-opacity="0.5"/>
<rect x="39.7918" y="13.2639" width="3.316" height="3.316" rx="1.34409" fill="white" fill-opacity="0.5"/>
<rect x="53.056" y="13.2639" width="3.316" height="3.316" rx="1.34409" fill="white" fill-opacity="0.5"/>
<rect x="66.3199" y="13.2639" width="3.316" height="3.316" rx="1.34409" fill="white" fill-opacity="0.5"/>
<rect x="79.584" y="13.2639" width="3.316" height="3.316" rx="1.34409" fill="white" fill-opacity="0.5"/>
<rect x="92.8481" y="13.2639" width="3.316" height="3.316" rx="1.34409" fill="white" fill-opacity="0.5"/>
<rect x="106.112" y="13.2639" width="3.316" height="3.316" rx="1.34409" fill="white" fill-opacity="0.5"/>
<rect x="119.376" y="13.2639" width="3.316" height="3.316" rx="1.34409" fill="white" fill-opacity="0.5"/>
<rect y="26.5281" width="3.316" height="3.316" rx="1.34409" fill="white" fill-opacity="0.5"/>
<rect x="13.264" y="26.5281" width="3.316" height="3.316" rx="1.34409" fill="white" fill-opacity="0.5"/>
<rect x="26.528" y="26.5281" width="3.316" height="3.316" rx="1.34409" fill="white" fill-opacity="0.5"/>
<rect x="39.7918" y="26.5281" width="3.316" height="3.316" rx="1.34409" fill="white" fill-opacity="0.5"/>
<rect x="53.056" y="26.5281" width="3.316" height="3.316" rx="1.34409" fill="white" fill-opacity="0.5"/>
<rect x="66.3199" y="26.5281" width="3.316" height="3.316" rx="1.34409" fill="white" fill-opacity="0.5"/>
<rect x="79.584" y="26.5281" width="3.316" height="3.316" rx="1.34409" fill="white" fill-opacity="0.5"/>
<rect x="92.8481" y="26.5281" width="3.316" height="3.316" rx="1.34409" fill="white" fill-opacity="0.5"/>
<rect x="106.112" y="26.5281" width="3.316" height="3.316" rx="1.34409" fill="white" fill-opacity="0.5"/>
<rect x="119.376" y="26.5281" width="3.316" height="3.316" rx="1.34409" fill="white" fill-opacity="0.5"/>
<rect y="39.7921" width="3.316" height="3.316" rx="1.34409" fill="white" fill-opacity="0.5"/>
<rect x="13.264" y="39.7921" width="3.316" height="3.316" rx="1.34409" fill="white" fill-opacity="0.5"/>
<rect x="26.528" y="39.7921" width="3.316" height="3.316" rx="1.34409" fill="white" fill-opacity="0.5"/>
<rect x="39.7918" y="39.7921" width="3.316" height="3.316" rx="1.34409" fill="white" fill-opacity="0.5"/>
<rect x="53.056" y="39.7921" width="3.316" height="3.316" rx="1.34409" fill="white" fill-opacity="0.5"/>
<rect x="66.3199" y="39.7921" width="3.316" height="3.316" rx="1.34409" fill="white" fill-opacity="0.5"/>
<rect x="79.584" y="39.7921" width="3.316" height="3.316" rx="1.34409" fill="white" fill-opacity="0.5"/>
<rect x="92.8481" y="39.7921" width="3.316" height="3.316" rx="1.34409" fill="white" fill-opacity="0.5"/>
<rect x="106.112" y="39.7921" width="3.316" height="3.316" rx="1.34409" fill="white" fill-opacity="0.5"/>
<rect x="119.376" y="39.7921" width="3.316" height="3.316" rx="1.34409" fill="white" fill-opacity="0.5"/>
<rect y="53.0559" width="3.316" height="3.316" rx="1.34409" fill="white" fill-opacity="0.5"/>
<rect x="13.264" y="53.0559" width="3.316" height="3.316" rx="1.34409" fill="white" fill-opacity="0.5"/>
<rect x="26.528" y="53.0559" width="3.316" height="3.316" rx="1.34409" fill="white" fill-opacity="0.5"/>
<rect x="39.7918" y="53.0559" width="3.316" height="3.316" rx="1.34409" fill="white" fill-opacity="0.5"/>
<rect x="53.056" y="53.0559" width="3.316" height="3.316" rx="1.34409" fill="white" fill-opacity="0.5"/>
<rect x="66.3199" y="53.0559" width="3.316" height="3.316" rx="1.34409" fill="white" fill-opacity="0.5"/>
<rect x="79.584" y="53.0559" width="3.316" height="3.316" rx="1.34409" fill="white" fill-opacity="0.5"/>
<rect x="92.8481" y="53.0559" width="3.316" height="3.316" rx="1.34409" fill="white" fill-opacity="0.5"/>
<rect x="106.112" y="53.0559" width="3.316" height="3.316" rx="1.34409" fill="white" fill-opacity="0.5"/>
<rect x="119.376" y="53.0559" width="3.316" height="3.316" rx="1.34409" fill="white" fill-opacity="0.5"/>
<rect y="66.3199" width="3.316" height="3.316" rx="1.34409" fill="white" fill-opacity="0.5"/>
<rect x="13.264" y="66.3199" width="3.316" height="3.316" rx="1.34409" fill="white" fill-opacity="0.5"/>
<rect x="26.528" y="66.3199" width="3.316" height="3.316" rx="1.34409" fill="white" fill-opacity="0.5"/>
<rect x="39.7918" y="66.3199" width="3.316" height="3.316" rx="1.34409" fill="white" fill-opacity="0.5"/>
<rect x="53.056" y="66.3199" width="3.316" height="3.316" rx="1.34409" fill="white" fill-opacity="0.5"/>
<rect x="66.3199" y="66.3199" width="3.316" height="3.316" rx="1.34409" fill="white" fill-opacity="0.5"/>
<rect x="79.584" y="66.3199" width="3.316" height="3.316" rx="1.34409" fill="white" fill-opacity="0.5"/>
<rect x="92.8481" y="66.3199" width="3.316" height="3.316" rx="1.34409" fill="white" fill-opacity="0.5"/>
<rect x="106.112" y="66.3199" width="3.316" height="3.316" rx="1.34409" fill="white" fill-opacity="0.5"/>
<rect x="119.376" y="66.3199" width="3.316" height="3.316" rx="1.34409" fill="white" fill-opacity="0.5"/>
<rect y="79.5839" width="3.316" height="3.316" rx="1.34409" fill="white" fill-opacity="0.5"/>
<rect y="92.3765" width="3.316" height="3.316" rx="1.34409" fill="white" fill-opacity="0.5"/>
<rect y="105.169" width="3.316" height="3.316" rx="1.34409" fill="white" fill-opacity="0.5"/>
<rect y="117.962" width="3.316" height="3.316" rx="1.34409" fill="white" fill-opacity="0.5"/>
<rect x="13.264" y="79.5839" width="3.316" height="3.316" rx="1.34409" fill="white" fill-opacity="0.5"/>
<rect x="13.264" y="92.3765" width="3.316" height="3.316" rx="1.34409" fill="white" fill-opacity="0.5"/>
<rect x="13.264" y="105.169" width="3.316" height="3.316" rx="1.34409" fill="white" fill-opacity="0.5"/>
<rect x="13.264" y="117.962" width="3.316" height="3.316" rx="1.34409" fill="white" fill-opacity="0.5"/>
<rect x="26.528" y="79.5839" width="3.316" height="3.316" rx="1.34409" fill="white" fill-opacity="0.5"/>
<rect x="26.528" y="92.3765" width="3.316" height="3.316" rx="1.34409" fill="white" fill-opacity="0.5"/>
<rect x="26.528" y="105.169" width="3.316" height="3.316" rx="1.34409" fill="white" fill-opacity="0.5"/>
<rect x="26.528" y="117.962" width="3.316" height="3.316" rx="1.34409" fill="white" fill-opacity="0.5"/>
<rect x="39.7918" y="79.5839" width="3.316" height="3.316" rx="1.34409" fill="white" fill-opacity="0.5"/>
<rect x="39.7918" y="92.3765" width="3.316" height="3.316" rx="1.34409" fill="white" fill-opacity="0.5"/>
<rect x="39.7918" y="105.169" width="3.316" height="3.316" rx="1.34409" fill="white" fill-opacity="0.5"/>
<rect x="39.7918" y="117.962" width="3.316" height="3.316" rx="1.34409" fill="white" fill-opacity="0.5"/>
<rect x="53.056" y="79.5839" width="3.316" height="3.316" rx="1.34409" fill="white" fill-opacity="0.5"/>
<rect x="53.056" y="92.3765" width="3.316" height="3.316" rx="1.34409" fill="white" fill-opacity="0.5"/>
<rect x="53.056" y="105.169" width="3.316" height="3.316" rx="1.34409" fill="white" fill-opacity="0.5"/>
<rect x="53.056" y="117.962" width="3.316" height="3.316" rx="1.34409" fill="white" fill-opacity="0.5"/>
<rect x="66.3199" y="79.5839" width="3.316" height="3.316" rx="1.34409" fill="white" fill-opacity="0.5"/>
<rect x="66.3199" y="92.3765" width="3.316" height="3.316" rx="1.34409" fill="white" fill-opacity="0.5"/>
<rect x="66.3199" y="105.169" width="3.316" height="3.316" rx="1.34409" fill="white" fill-opacity="0.5"/>
<rect x="66.3199" y="117.962" width="3.316" height="3.316" rx="1.34409" fill="white" fill-opacity="0.5"/>
<rect x="79.584" y="79.5839" width="3.316" height="3.316" rx="1.34409" fill="white" fill-opacity="0.5"/>
<rect x="79.584" y="92.3765" width="3.316" height="3.316" rx="1.34409" fill="white" fill-opacity="0.5"/>
<rect x="79.584" y="105.169" width="3.316" height="3.316" rx="1.34409" fill="white" fill-opacity="0.5"/>
<rect x="79.584" y="117.962" width="3.316" height="3.316" rx="1.34409" fill="white" fill-opacity="0.5"/>
<rect x="92.8481" y="79.5839" width="3.316" height="3.316" rx="1.34409" fill="white" fill-opacity="0.5"/>
<rect x="92.8481" y="92.3765" width="3.316" height="3.316" rx="1.34409" fill="white" fill-opacity="0.5"/>
<rect x="92.8481" y="105.169" width="3.316" height="3.316" rx="1.34409" fill="white" fill-opacity="0.5"/>
<rect x="92.8481" y="117.962" width="3.316" height="3.316" rx="1.34409" fill="white" fill-opacity="0.5"/>
<rect x="106.112" y="79.5839" width="3.316" height="3.316" rx="1.34409" fill="white" fill-opacity="0.5"/>
<rect x="106.112" y="92.3765" width="3.316" height="3.316" rx="1.34409" fill="white" fill-opacity="0.5"/>
<rect x="106.112" y="105.169" width="3.316" height="3.316" rx="1.34409" fill="white" fill-opacity="0.5"/>
<rect x="106.112" y="117.962" width="3.316" height="3.316" rx="1.34409" fill="white" fill-opacity="0.5"/>
<rect x="119.376" y="79.5839" width="3.316" height="3.316" rx="1.34409" fill="white" fill-opacity="0.5"/>
<rect x="119.376" y="92.3765" width="3.316" height="3.316" rx="1.34409" fill="white" fill-opacity="0.5"/>
<rect x="119.376" y="105.169" width="3.316" height="3.316" rx="1.34409" fill="white" fill-opacity="0.5"/>
<rect x="119.376" y="117.962" width="3.316" height="3.316" rx="1.34409" fill="white" fill-opacity="0.5"/>
</svg>
