<svg width="10" height="5" viewBox="0 0 10 5" fill="none" xmlns="http://www.w3.org/2000/svg">
<path d="M7.30578 0C7.6678 0.171252 7.99178 0.37099 8.29136 0.606584C9.10412 1.2464 9.67035 2.04683 9.98989 3.00836C10.0085 3.06452 10.0039 3.09874 9.95526 3.14114C8.9284 4.03784 7.73673 4.62117 6.37292 4.87428C5.64529 5.00935 4.91204 5.03555 4.17503 4.95304C2.59797 4.77654 1.227 4.16898 0.051877 3.1472C-0.00373984 3.0989 -0.0103936 3.0601 0.0119555 2.99445C0.464056 1.6747 1.33124 0.692046 2.60718 0.0388017C2.66007 0.0117878 2.69112 0.0137525 2.73548 0.0582844C3.97116 1.29945 6.02096 1.29912 7.26108 0.0592667C7.27866 0.0417486 7.29128 0.0196466 7.30595 0.00016388L7.30578 0Z" fill="white"/>
</svg>
