<svg width="18" height="14" viewBox="0 0 18 14" fill="none" xmlns="http://www.w3.org/2000/svg">
<path d="M1.88889 11.9997L5.44444 7L8.55556 10L12.5556 4.49971L16.5556 11.9997M1 11.2857V2.71429C1 2.25963 1.1873 1.82359 1.5207 1.5021C1.8541 1.18061 2.30628 1 2.77778 1H15.2222C15.6937 1 16.1459 1.18061 16.4793 1.5021C16.8127 1.82359 17 2.25963 17 2.71429V11.2857C17 11.7404 16.8127 12.1764 16.4793 12.4979C16.1459 12.8194 15.6937 13 15.2222 13H2.77778C2.30628 13 1.8541 12.8194 1.5207 12.4979C1.1873 12.1764 1 11.7404 1 11.2857Z" stroke="white" stroke-width="2" stroke-linecap="round" stroke-linejoin="round"/>
</svg>
